<?xml version="1.0" standalone="no"?>
<!DOCTYPE svg PUBLIC "-//W3C//DTD SVG 1.1//EN" "http://www.w3.org/Graphics/SVG/1.1/DTD/svg11.dtd">
<svg xmlns:svg="http://www.w3.org/2000/svg" xmlns="http://www.w3.org/2000/svg"
  xmlns:xlink="http://www.w3.org/1999/xlink" version="1.1" width="89.8652mm" height="30.3530mm"
  viewBox="0.0000 0.0000 89.8652 30.3530">
  <title>SVG Image created as mixer-Edge_Cuts.svg date 2024/05/04 13:53:55 </title>
  <desc>Image generated by PCBNEW </desc>
  <g style="fill:#000000; fill-opacity:1.0000;stroke:#000000; stroke-opacity:1.0000;
stroke-linecap:round; stroke-linejoin:round;" transform="translate(0 0) scale(1 1)">
  </g>
  <g style="fill:#000000; fill-opacity:0.0; 
stroke:#000000; stroke-width:0.0000; stroke-opacity:1; 
stroke-linecap:round; stroke-linejoin:round;">
  </g>
  <g style="fill:#000000; fill-opacity:0.0; 
stroke:#000000; stroke-width:0.1000; stroke-opacity:1; 
stroke-linecap:round; stroke-linejoin:round;">
    <path d="M85.1271 19.9137 A4.6990 4.6990 0.0 0 0 85.1271 10.5157" />
    <path d="M4.7490 19.8300
L4.7453 27.6069
" />
    <path d="M85.1271 4.5467 A2.4155 2.4155 0.0 0 0 82.7500 2.0750" />
    <circle cx="85.1271" cy="15.2147" r="2.5400" />
    <path d="M81.4800 2.0750
L8.4907 2.0859
" />
    <path d="M8.4907 2.0859
L7.2207 2.0859
" />
    <path d="M4.7490 10.4320 A4.6990 4.6990 0.0 0 0 4.7490 19.8300" />
    <path d="M7.3644 30.2489
L82.4813 30.3097
" />
    <path d="M85.1271 19.9137
L85.1233 27.6906
" />
    <path d="M82.4813 30.3097 A2.6421 2.6421 0.0 0 0 85.1233 27.6906" />
    <path d="M4.7452 27.6069 A2.6422 2.6422 0.0 0 0 7.3644 30.2489" />
    <path d="M85.1271 10.5157
L85.1271 4.5467
" />
    <path d="M4.7490 10.4320
L4.7490 4.4630
" />
    <path d="M7.2207 2.0859 A2.4155 2.4155 0.0 0 0 4.7490 4.4630" />
    <circle cx="4.7490" cy="15.1310" r="2.5400" />
    <path d="M82.7500 2.0750
L81.4800 2.0750
" />
    <g>
    </g>
    <g>
    </g>
    <g>
    </g>
    <g>
    </g>
    <g>
    </g>
    <g>
    </g>
    <g>
    </g>
    <g>
    </g>
    <g>
    </g>
    <g>
    </g>
    <g>
    </g>
    <g>
    </g>
  </g>
</svg>