<?xml version="1.0" standalone="no"?>
 <!DOCTYPE svg PUBLIC "-//W3C//DTD SVG 1.1//EN" 
 "http://www.w3.org/Graphics/SVG/1.1/DTD/svg11.dtd"> 
<svg
  xmlns:svg="http://www.w3.org/2000/svg"
  xmlns="http://www.w3.org/2000/svg"
  xmlns:xlink="http://www.w3.org/1999/xlink"
  version="1.1"
  width="87.5792mm" height="30.3022mm" viewBox="0.0000 0.0000 87.5792 30.3022">
<title>SVG Image created as mixer-Edge_Cuts.svg date 2024/04/25 19:25:29 </title>
  <desc>Image generated by PCBNEW </desc>
<g style="fill:#000000; fill-opacity:1.0000;stroke:#000000; stroke-opacity:1.0000;
stroke-linecap:round; stroke-linejoin:round;"
 transform="translate(0 0) scale(1 1)">
</g>
<g style="fill:#000000; fill-opacity:0.0; 
stroke:#000000; stroke-width:0.0000; stroke-opacity:1; 
stroke-linecap:round; stroke-linejoin:round;">
</g>
<g style="fill:#000000; fill-opacity:0.0; 
stroke:#000000; stroke-width:0.1000; stroke-opacity:1; 
stroke-linecap:round; stroke-linejoin:round;">
<path d="M4.7490 19.8620
L4.7490 30.2760
" />
<path d="M4.7490 0.0500
L82.8540 0.0500
" />
<path d="M4.7490 10.4640 A4.6990 4.6990 0.0 0 0 4.7490 19.8620" />
<path d="M4.7490 30.2760
L82.8540 30.2760
" />
<circle cx="82.8540" cy="15.1630" r="1.5240" /> 
<path d="M82.8540 0.0500
L82.8540 10.4640
" />
<path d="M82.8540 19.8620 A4.6990 4.6990 0.0 0 0 82.8540 10.4640" />
<path d="M4.7490 10.4640
L4.7490 0.0500
" />
<circle cx="4.7490" cy="15.1630" r="1.5240" /> 
<path d="M82.8540 19.8620
L82.8540 30.2760
" />
</g>
<g style="fill:#000000; fill-opacity:0.0; 
stroke:#000000; stroke-width:0.1200; stroke-opacity:1; 
stroke-linecap:round; stroke-linejoin:round;">
<path d="M15.9210 3.0920
L15.9210 2.0920
" />
<path d="M15.9210 2.0920
L20.2210 2.0920
" />
<path d="M11.9210 3.4920
L15.5210 3.4920
" />
<path d="M11.5210 3.0920
L11.5210 2.0920
" />
<path d="M11.5210 2.0920
L7.2210 2.0920
" />
<path d="M15.5210 3.4920 A0.4000 0.4000 0.0 0 0 15.9210 3.0920" />
<path d="M11.5210 3.0920 A0.4000 0.4000 0.0 0 0 11.9210 3.4920" />
<path d="M75.9100 3.0920
L75.9100 2.0920
" />
<path d="M75.9100 2.0920
L80.2100 2.0920
" />
<path d="M71.9100 3.4920
L75.5100 3.4920
" />
<path d="M71.5100 3.0920
L71.5100 2.0920
" />
<path d="M71.5100 2.0920
L67.2100 2.0920
" />
<path d="M75.5100 3.4920 A0.4000 0.4000 0.0 0 0 75.9100 3.0920" />
<path d="M71.5100 3.0920 A0.4000 0.4000 0.0 0 0 71.9100 3.4920" />
<path d="M30.9182 3.0920
L30.9182 2.0920
" />
<path d="M30.9182 2.0920
L35.2182 2.0920
" />
<path d="M26.9183 3.4920
L30.5182 3.4920
" />
<path d="M26.5182 3.0920
L26.5182 2.0920
" />
<path d="M26.5182 2.0920
L22.2182 2.0920
" />
<path d="M30.5182 3.4920 A0.4000 0.4000 0.0 0 0 30.9182 3.0920" />
<path d="M26.5183 3.0920 A0.4000 0.4000 0.0 0 0 26.9183 3.4920" />
<path d="M41.5155 3.0920 A0.4000 0.4000 0.0 0 0 41.9155 3.4920" />
<path d="M45.5155 3.4920 A0.4000 0.4000 0.0 0 0 45.9155 3.0920" />
<path d="M41.5155 2.0920
L37.2155 2.0920
" />
<path d="M41.5155 3.0920
L41.5155 2.0920
" />
<path d="M41.9155 3.4920
L45.5155 3.4920
" />
<path d="M45.9155 2.0920
L50.2155 2.0920
" />
<path d="M45.9155 3.0920
L45.9155 2.0920
" />
<path d="M60.9127 3.0920
L60.9127 2.0920
" />
<path d="M60.9127 2.0920
L65.2127 2.0920
" />
<path d="M56.9127 3.4920
L60.5127 3.4920
" />
<path d="M56.5127 3.0920
L56.5127 2.0920
" />
<path d="M56.5127 2.0920
L52.2127 2.0920
" />
<path d="M60.5127 3.4920 A0.4000 0.4000 0.0 0 0 60.9127 3.0920" />
<path d="M56.5127 3.0920 A0.4000 0.4000 0.0 0 0 56.9127 3.4920" />
<g >
</g>
<g >
</g>
<g >
</g>
<g >
</g>
<g >
</g>
<g >
</g>
<g >
</g>
<g >
</g>
<g >
</g>
<g >
</g>
<g >
</g>
<g >
</g>
</g> 
</svg>
