<?xml version="1.0" standalone="no"?>
 <!DOCTYPE svg PUBLIC "-//W3C//DTD SVG 1.1//EN" 
 "http://www.w3.org/Graphics/SVG/1.1/DTD/svg11.dtd"> 
<svg
  xmlns:svg="http://www.w3.org/2000/svg"
  xmlns="http://www.w3.org/2000/svg"
  xmlns:xlink="http://www.w3.org/1999/xlink"
  version="1.1"
  width="87.5792mm" height="30.3022mm" viewBox="0.0000 0.0000 87.5792 30.3022">
<title>SVG Image created as mixer-F_Mask.svg date 2024/04/25 19:25:29 </title>
  <desc>Image generated by PCBNEW </desc>
<g style="fill:#000000; fill-opacity:1.0000;stroke:#000000; stroke-opacity:1.0000;
stroke-linecap:round; stroke-linejoin:round;"
 transform="translate(0 0) scale(1 1)">
</g>
<g style="fill:#000000; fill-opacity:0.0; 
stroke:#000000; stroke-width:0.0000; stroke-opacity:1; 
stroke-linecap:round; stroke-linejoin:round;">
<g >
</g>
<g style="fill:#000000; fill-opacity:0.0; 
stroke:#000000; stroke-width:1.2000; stroke-opacity:1; 
stroke-linecap:round; stroke-linejoin:round;">
<path d="M18.7210 12.0920
L18.7210 11.0920
" />
<path d="M16.2210 12.0920
L16.2210 11.0920
" />
<path d="M14.2210 6.5920
L13.2210 6.5920
" />
<path d="M8.7210 11.0920
L8.7210 12.0920
" />
<path d="M11.2210 11.0920
L11.2210 12.0920
" />
</g>
<g >
</g>
<g style="fill:#000000; fill-opacity:0.0; 
stroke:#000000; stroke-width:1.2000; stroke-opacity:1; 
stroke-linecap:round; stroke-linejoin:round;">
</g>
<g style="fill:#000000; fill-opacity:0.0; 
stroke:#000000; stroke-width:0.0000; stroke-opacity:1; 
stroke-linecap:round; stroke-linejoin:round;">
</g>
<g style="fill:#000000; fill-opacity:1.0000; 
stroke:#000000; stroke-width:0.0000; stroke-opacity:1; 
stroke-linecap:round; stroke-linejoin:round;">
<path style="fill:#000000; fill-opacity:1.0000; 
stroke:#000000; stroke-width:0.0000; stroke-opacity:1; 
stroke-linecap:round; stroke-linejoin:round;fill-rule:evenodd;"
d="M 15.3210,16.0410
17.1210,16.0410
17.1210,17.8410
15.3210,17.8410
Z" /> 
<circle cx="13.7210" cy="16.9410" r="0.9000" /> 
</g>
<g style="fill:#000000; fill-opacity:1.0000; 
stroke:#000000; stroke-width:0.0212; stroke-opacity:1; 
stroke-linecap:round; stroke-linejoin:round;">
</g>
<g style="fill:#000000; fill-opacity:1.0000; 
stroke:#000000; stroke-width:0.0000; stroke-opacity:1; 
stroke-linecap:round; stroke-linejoin:round;">
<circle cx="11.2210" cy="16.9410" r="0.9000" /> 
</g>
<g style="fill:#000000; fill-opacity:1.0000; 
stroke:#000000; stroke-width:0.0212; stroke-opacity:1; 
stroke-linecap:round; stroke-linejoin:round;">
</g>
<g style="fill:#000000; fill-opacity:1.0000; 
stroke:#000000; stroke-width:0.0000; stroke-opacity:1; 
stroke-linecap:round; stroke-linejoin:round;">
<path style="fill:#000000; fill-opacity:1.0000; 
stroke:#000000; stroke-width:0.0000; stroke-opacity:1; 
stroke-linecap:round; stroke-linejoin:round;fill-rule:evenodd;"
d="M 18.8710,21.9410
19.0227,21.9565
19.1880,22.0113
19.3362,22.1027
19.4593,22.2258
19.5507,22.3740
19.6055,22.5393
19.6210,22.6910
19.6210,25.1910
19.6055,25.3427
19.5507,25.5080
19.4593,25.6562
19.3362,25.7793
19.1880,25.8707
19.0227,25.9255
18.8710,25.9410
17.3710,25.9410
17.2193,25.9255
17.0540,25.8707
16.9058,25.7793
16.7827,25.6562
16.6913,25.5080
16.6365,25.3427
16.6210,25.1910
16.6210,22.6910
16.6365,22.5393
16.6913,22.3740
16.7827,22.2258
16.9058,22.1027
17.0540,22.0113
17.2193,21.9565
17.3710,21.9410
Z" /> 
<path style="fill:#000000; fill-opacity:1.0000; 
stroke:#000000; stroke-width:0.0000; stroke-opacity:1; 
stroke-linecap:round; stroke-linejoin:round;fill-rule:evenodd;"
d="M 10.0710,21.9410
10.2227,21.9565
10.3880,22.0113
10.5362,22.1027
10.6593,22.2258
10.7507,22.3740
10.8055,22.5393
10.8210,22.6910
10.8210,25.1910
10.8055,25.3427
10.7507,25.5080
10.6593,25.6562
10.5362,25.7793
10.3880,25.8707
10.2227,25.9255
10.0710,25.9410
8.5710,25.9410
8.4193,25.9255
8.2540,25.8707
8.1058,25.7793
7.9827,25.6562
7.8913,25.5080
7.8365,25.3427
7.8210,25.1910
7.8210,22.6910
7.8365,22.5393
7.8913,22.3740
7.9827,22.2258
8.1058,22.1027
8.2540,22.0113
8.4193,21.9565
8.5710,21.9410
Z" /> 
</g>
<g >
</g>
<g style="fill:#000000; fill-opacity:1.0000; 
stroke:#000000; stroke-width:0.0000; stroke-opacity:1; 
stroke-linecap:round; stroke-linejoin:round;">
<path style="fill:#000000; fill-opacity:1.0000; 
stroke:#000000; stroke-width:0.0000; stroke-opacity:1; 
stroke-linecap:round; stroke-linejoin:round;fill-rule:evenodd;"
d="M 60.3127,16.0410
62.1127,16.0410
62.1127,17.8410
60.3127,17.8410
Z" /> 
<circle cx="58.7127" cy="16.9410" r="0.9000" /> 
</g>
<g style="fill:#000000; fill-opacity:1.0000; 
stroke:#000000; stroke-width:0.0212; stroke-opacity:1; 
stroke-linecap:round; stroke-linejoin:round;">
</g>
<g style="fill:#000000; fill-opacity:1.0000; 
stroke:#000000; stroke-width:0.0000; stroke-opacity:1; 
stroke-linecap:round; stroke-linejoin:round;">
<circle cx="56.2127" cy="16.9410" r="0.9000" /> 
</g>
<g style="fill:#000000; fill-opacity:1.0000; 
stroke:#000000; stroke-width:0.0212; stroke-opacity:1; 
stroke-linecap:round; stroke-linejoin:round;">
</g>
<g style="fill:#000000; fill-opacity:1.0000; 
stroke:#000000; stroke-width:0.0000; stroke-opacity:1; 
stroke-linecap:round; stroke-linejoin:round;">
<path style="fill:#000000; fill-opacity:1.0000; 
stroke:#000000; stroke-width:0.0000; stroke-opacity:1; 
stroke-linecap:round; stroke-linejoin:round;fill-rule:evenodd;"
d="M 63.8627,21.9410
64.0144,21.9565
64.1797,22.0113
64.3279,22.1027
64.4511,22.2258
64.5425,22.3740
64.5973,22.5393
64.6127,22.6910
64.6127,25.1910
64.5973,25.3427
64.5425,25.5080
64.4511,25.6562
64.3279,25.7793
64.1797,25.8707
64.0144,25.9255
63.8627,25.9410
62.3627,25.9410
62.2111,25.9255
62.0458,25.8707
61.8976,25.7793
61.7744,25.6562
61.6830,25.5080
61.6282,25.3427
61.6127,25.1910
61.6127,22.6910
61.6282,22.5393
61.6830,22.3740
61.7744,22.2258
61.8976,22.1027
62.0458,22.0113
62.2111,21.9565
62.3627,21.9410
Z" /> 
<path style="fill:#000000; fill-opacity:1.0000; 
stroke:#000000; stroke-width:0.0000; stroke-opacity:1; 
stroke-linecap:round; stroke-linejoin:round;fill-rule:evenodd;"
d="M 55.0627,21.9410
55.2144,21.9565
55.3797,22.0113
55.5279,22.1027
55.6511,22.2258
55.7425,22.3740
55.7973,22.5393
55.8127,22.6910
55.8127,25.1910
55.7973,25.3427
55.7425,25.5080
55.6511,25.6562
55.5279,25.7793
55.3797,25.8707
55.2144,25.9255
55.0627,25.9410
53.5627,25.9410
53.4111,25.9255
53.2458,25.8707
53.0976,25.7793
52.9744,25.6562
52.8830,25.5080
52.8282,25.3427
52.8127,25.1910
52.8127,22.6910
52.8282,22.5393
52.8830,22.3740
52.9744,22.2258
53.0976,22.1027
53.2458,22.0113
53.4111,21.9565
53.5627,21.9410
Z" /> 
</g>
<g >
</g>
<g style="fill:#000000; fill-opacity:1.0000; 
stroke:#000000; stroke-width:0.0000; stroke-opacity:1; 
stroke-linecap:round; stroke-linejoin:round;">
</g>
<g style="fill:#000000; fill-opacity:1.0000; 
stroke:#000000; stroke-width:1.2000; stroke-opacity:1; 
stroke-linecap:round; stroke-linejoin:round;">
</g>
<g style="fill:#000000; fill-opacity:0.0; 
stroke:#000000; stroke-width:1.2000; stroke-opacity:1; 
stroke-linecap:round; stroke-linejoin:round;">
<path d="M78.7100 12.0920
L78.7100 11.0920
" />
<path d="M76.2100 12.0920
L76.2100 11.0920
" />
<path d="M74.2100 6.5920
L73.2100 6.5920
" />
<path d="M68.7100 11.0920
L68.7100 12.0920
" />
<path d="M71.2100 11.0920
L71.2100 12.0920
" />
</g>
<g >
</g>
<g style="fill:#000000; fill-opacity:0.0; 
stroke:#000000; stroke-width:1.2000; stroke-opacity:1; 
stroke-linecap:round; stroke-linejoin:round;">
<path d="M33.7182 12.0920
L33.7182 11.0920
" />
<path d="M31.2182 12.0920
L31.2182 11.0920
" />
<path d="M29.2182 6.5920
L28.2182 6.5920
" />
<path d="M23.7182 11.0920
L23.7182 12.0920
" />
<path d="M26.2182 11.0920
L26.2182 12.0920
" />
</g>
<g >
</g>
<g style="fill:#000000; fill-opacity:0.0; 
stroke:#000000; stroke-width:1.2000; stroke-opacity:1; 
stroke-linecap:round; stroke-linejoin:round;">
<path d="M41.2155 11.0920
L41.2155 12.0920
" />
<path d="M38.7155 11.0920
L38.7155 12.0920
" />
<path d="M44.2155 6.5920
L43.2155 6.5920
" />
<path d="M46.2155 12.0920
L46.2155 11.0920
" />
<path d="M48.7155 12.0920
L48.7155 11.0920
" />
</g>
<g >
</g>
<g style="fill:#000000; fill-opacity:0.0; 
stroke:#000000; stroke-width:1.2000; stroke-opacity:1; 
stroke-linecap:round; stroke-linejoin:round;">
</g>
<g style="fill:#000000; fill-opacity:0.0; 
stroke:#000000; stroke-width:0.0000; stroke-opacity:1; 
stroke-linecap:round; stroke-linejoin:round;">
</g>
<g style="fill:#000000; fill-opacity:1.0000; 
stroke:#000000; stroke-width:0.0000; stroke-opacity:1; 
stroke-linecap:round; stroke-linejoin:round;">
<path style="fill:#000000; fill-opacity:1.0000; 
stroke:#000000; stroke-width:0.0000; stroke-opacity:1; 
stroke-linecap:round; stroke-linejoin:round;fill-rule:evenodd;"
d="M 30.3182,16.0410
32.1182,16.0410
32.1182,17.8410
30.3182,17.8410
Z" /> 
<circle cx="28.7182" cy="16.9410" r="0.9000" /> 
</g>
<g style="fill:#000000; fill-opacity:1.0000; 
stroke:#000000; stroke-width:0.0212; stroke-opacity:1; 
stroke-linecap:round; stroke-linejoin:round;">
</g>
<g style="fill:#000000; fill-opacity:1.0000; 
stroke:#000000; stroke-width:0.0000; stroke-opacity:1; 
stroke-linecap:round; stroke-linejoin:round;">
<circle cx="26.2182" cy="16.9410" r="0.9000" /> 
</g>
<g style="fill:#000000; fill-opacity:1.0000; 
stroke:#000000; stroke-width:0.0212; stroke-opacity:1; 
stroke-linecap:round; stroke-linejoin:round;">
</g>
<g style="fill:#000000; fill-opacity:1.0000; 
stroke:#000000; stroke-width:0.0000; stroke-opacity:1; 
stroke-linecap:round; stroke-linejoin:round;">
<path style="fill:#000000; fill-opacity:1.0000; 
stroke:#000000; stroke-width:0.0000; stroke-opacity:1; 
stroke-linecap:round; stroke-linejoin:round;fill-rule:evenodd;"
d="M 33.8682,21.9410
34.0199,21.9565
34.1852,22.0113
34.3334,22.1027
34.4566,22.2258
34.5480,22.3740
34.6028,22.5393
34.6182,22.6910
34.6182,25.1910
34.6028,25.3427
34.5480,25.5080
34.4566,25.6562
34.3334,25.7793
34.1852,25.8707
34.0199,25.9255
33.8682,25.9410
32.3682,25.9410
32.2166,25.9255
32.0513,25.8707
31.9031,25.7793
31.7799,25.6562
31.6885,25.5080
31.6337,25.3427
31.6182,25.1910
31.6182,22.6910
31.6337,22.5393
31.6885,22.3740
31.7799,22.2258
31.9031,22.1027
32.0513,22.0113
32.2166,21.9565
32.3682,21.9410
Z" /> 
<path style="fill:#000000; fill-opacity:1.0000; 
stroke:#000000; stroke-width:0.0000; stroke-opacity:1; 
stroke-linecap:round; stroke-linejoin:round;fill-rule:evenodd;"
d="M 25.0682,21.9410
25.2199,21.9565
25.3852,22.0113
25.5334,22.1027
25.6566,22.2258
25.7480,22.3740
25.8028,22.5393
25.8182,22.6910
25.8182,25.1910
25.8028,25.3427
25.7480,25.5080
25.6566,25.6562
25.5334,25.7793
25.3852,25.8707
25.2199,25.9255
25.0682,25.9410
23.5682,25.9410
23.4166,25.9255
23.2513,25.8707
23.1031,25.7793
22.9799,25.6562
22.8885,25.5080
22.8337,25.3427
22.8182,25.1910
22.8182,22.6910
22.8337,22.5393
22.8885,22.3740
22.9799,22.2258
23.1031,22.1027
23.2513,22.0113
23.4166,21.9565
23.5682,21.9410
Z" /> 
</g>
<g >
</g>
<g style="fill:#000000; fill-opacity:1.0000; 
stroke:#000000; stroke-width:0.0000; stroke-opacity:1; 
stroke-linecap:round; stroke-linejoin:round;">
<path style="fill:#000000; fill-opacity:1.0000; 
stroke:#000000; stroke-width:0.0000; stroke-opacity:1; 
stroke-linecap:round; stroke-linejoin:round;fill-rule:evenodd;"
d="M 45.3155,16.0410
47.1155,16.0410
47.1155,17.8410
45.3155,17.8410
Z" /> 
<circle cx="43.7155" cy="16.9410" r="0.9000" /> 
</g>
<g style="fill:#000000; fill-opacity:1.0000; 
stroke:#000000; stroke-width:0.0212; stroke-opacity:1; 
stroke-linecap:round; stroke-linejoin:round;">
</g>
<g style="fill:#000000; fill-opacity:1.0000; 
stroke:#000000; stroke-width:0.0000; stroke-opacity:1; 
stroke-linecap:round; stroke-linejoin:round;">
<circle cx="41.2155" cy="16.9410" r="0.9000" /> 
</g>
<g style="fill:#000000; fill-opacity:1.0000; 
stroke:#000000; stroke-width:0.0212; stroke-opacity:1; 
stroke-linecap:round; stroke-linejoin:round;">
</g>
<g style="fill:#000000; fill-opacity:1.0000; 
stroke:#000000; stroke-width:0.0000; stroke-opacity:1; 
stroke-linecap:round; stroke-linejoin:round;">
<path style="fill:#000000; fill-opacity:1.0000; 
stroke:#000000; stroke-width:0.0000; stroke-opacity:1; 
stroke-linecap:round; stroke-linejoin:round;fill-rule:evenodd;"
d="M 48.8655,21.9410
49.0172,21.9565
49.1825,22.0113
49.3307,22.1027
49.4538,22.2258
49.5452,22.3740
49.6000,22.5393
49.6155,22.6910
49.6155,25.1910
49.6000,25.3427
49.5452,25.5080
49.4538,25.6562
49.3307,25.7793
49.1825,25.8707
49.0172,25.9255
48.8655,25.9410
47.3655,25.9410
47.2138,25.9255
47.0485,25.8707
46.9003,25.7793
46.7772,25.6562
46.6858,25.5080
46.6310,25.3427
46.6155,25.1910
46.6155,22.6910
46.6310,22.5393
46.6858,22.3740
46.7772,22.2258
46.9003,22.1027
47.0485,22.0113
47.2138,21.9565
47.3655,21.9410
Z" /> 
<path style="fill:#000000; fill-opacity:1.0000; 
stroke:#000000; stroke-width:0.0000; stroke-opacity:1; 
stroke-linecap:round; stroke-linejoin:round;fill-rule:evenodd;"
d="M 40.0655,21.9410
40.2172,21.9565
40.3825,22.0113
40.5307,22.1027
40.6538,22.2258
40.7452,22.3740
40.8000,22.5393
40.8155,22.6910
40.8155,25.1910
40.8000,25.3427
40.7452,25.5080
40.6538,25.6562
40.5307,25.7793
40.3825,25.8707
40.2172,25.9255
40.0655,25.9410
38.5655,25.9410
38.4138,25.9255
38.2485,25.8707
38.1003,25.7793
37.9772,25.6562
37.8858,25.5080
37.8310,25.3427
37.8155,25.1910
37.8155,22.6910
37.8310,22.5393
37.8858,22.3740
37.9772,22.2258
38.1003,22.1027
38.2485,22.0113
38.4138,21.9565
38.5655,21.9410
Z" /> 
</g>
<g >
</g>
<g style="fill:#000000; fill-opacity:1.0000; 
stroke:#000000; stroke-width:0.0000; stroke-opacity:1; 
stroke-linecap:round; stroke-linejoin:round;">
</g>
<g style="fill:#000000; fill-opacity:1.0000; 
stroke:#000000; stroke-width:1.2000; stroke-opacity:1; 
stroke-linecap:round; stroke-linejoin:round;">
</g>
<g style="fill:#000000; fill-opacity:0.0; 
stroke:#000000; stroke-width:1.2000; stroke-opacity:1; 
stroke-linecap:round; stroke-linejoin:round;">
<path d="M63.7127 12.0920
L63.7127 11.0920
" />
<path d="M61.2127 12.0920
L61.2127 11.0920
" />
<path d="M59.2127 6.5920
L58.2127 6.5920
" />
<path d="M53.7127 11.0920
L53.7127 12.0920
" />
<path d="M56.2127 11.0920
L56.2127 12.0920
" />
</g>
<g >
</g>
<g >
</g>
<g >
</g>
</g>
<g style="fill:#000000; fill-opacity:0.0; 
stroke:#000000; stroke-width:1.2000; stroke-opacity:1; 
stroke-linecap:round; stroke-linejoin:round;">
</g>
<g style="fill:#000000; fill-opacity:0.0; 
stroke:#000000; stroke-width:0.1000; stroke-opacity:1; 
stroke-linecap:round; stroke-linejoin:round;">
<path d="M4.7490 19.8620
L4.7490 30.2760
" />
<path d="M4.7490 0.0500
L82.8540 0.0500
" />
<path d="M4.7490 10.4640 A4.6990 4.6990 0.0 0 0 4.7490 19.8620" />
<path d="M4.7490 30.2760
L82.8540 30.2760
" />
<circle cx="82.8540" cy="15.1630" r="1.5240" /> 
<path d="M82.8540 0.0500
L82.8540 10.4640
" />
<path d="M82.8540 19.8620 A4.6990 4.6990 0.0 0 0 82.8540 10.4640" />
<path d="M4.7490 10.4640
L4.7490 0.0500
" />
<circle cx="4.7490" cy="15.1630" r="1.5240" /> 
<path d="M82.8540 19.8620
L82.8540 30.2760
" />
</g>
<g style="fill:#000000; fill-opacity:0.0; 
stroke:#000000; stroke-width:0.1200; stroke-opacity:1; 
stroke-linecap:round; stroke-linejoin:round;">
<path d="M15.9210 3.0920
L15.9210 2.0920
" />
<path d="M15.9210 2.0920
L20.2210 2.0920
" />
<path d="M11.9210 3.4920
L15.5210 3.4920
" />
<path d="M11.5210 3.0920
L11.5210 2.0920
" />
<path d="M11.5210 2.0920
L7.2210 2.0920
" />
<path d="M15.5210 3.4920 A0.4000 0.4000 0.0 0 0 15.9210 3.0920" />
<path d="M11.5210 3.0920 A0.4000 0.4000 0.0 0 0 11.9210 3.4920" />
<path d="M75.9100 3.0920
L75.9100 2.0920
" />
<path d="M75.9100 2.0920
L80.2100 2.0920
" />
<path d="M71.9100 3.4920
L75.5100 3.4920
" />
<path d="M71.5100 3.0920
L71.5100 2.0920
" />
<path d="M71.5100 2.0920
L67.2100 2.0920
" />
<path d="M75.5100 3.4920 A0.4000 0.4000 0.0 0 0 75.9100 3.0920" />
<path d="M71.5100 3.0920 A0.4000 0.4000 0.0 0 0 71.9100 3.4920" />
<path d="M30.9182 3.0920
L30.9182 2.0920
" />
<path d="M30.9182 2.0920
L35.2182 2.0920
" />
<path d="M26.9183 3.4920
L30.5182 3.4920
" />
<path d="M26.5182 3.0920
L26.5182 2.0920
" />
<path d="M26.5182 2.0920
L22.2182 2.0920
" />
<path d="M30.5182 3.4920 A0.4000 0.4000 0.0 0 0 30.9182 3.0920" />
<path d="M26.5183 3.0920 A0.4000 0.4000 0.0 0 0 26.9183 3.4920" />
<path d="M41.5155 3.0920 A0.4000 0.4000 0.0 0 0 41.9155 3.4920" />
<path d="M45.5155 3.4920 A0.4000 0.4000 0.0 0 0 45.9155 3.0920" />
<path d="M41.5155 2.0920
L37.2155 2.0920
" />
<path d="M41.5155 3.0920
L41.5155 2.0920
" />
<path d="M41.9155 3.4920
L45.5155 3.4920
" />
<path d="M45.9155 2.0920
L50.2155 2.0920
" />
<path d="M45.9155 3.0920
L45.9155 2.0920
" />
<path d="M60.9127 3.0920
L60.9127 2.0920
" />
<path d="M60.9127 2.0920
L65.2127 2.0920
" />
<path d="M56.9127 3.4920
L60.5127 3.4920
" />
<path d="M56.5127 3.0920
L56.5127 2.0920
" />
<path d="M56.5127 2.0920
L52.2127 2.0920
" />
<path d="M60.5127 3.4920 A0.4000 0.4000 0.0 0 0 60.9127 3.0920" />
<path d="M56.5127 3.0920 A0.4000 0.4000 0.0 0 0 56.9127 3.4920" />
<g >
</g>
<g >
</g>
<g >
</g>
<g >
</g>
<g >
</g>
<g >
</g>
<g >
</g>
<g >
</g>
<g >
</g>
<g >
</g>
<g >
</g>
<g >
</g>
</g> 
</svg>
