<?xml version="1.0" standalone="no"?>
<!DOCTYPE svg PUBLIC "-//W3C//DTD SVG 1.1//EN" "http://www.w3.org/Graphics/SVG/1.1/DTD/svg11.dtd">
<svg xmlns:svg="http://www.w3.org/2000/svg" xmlns="http://www.w3.org/2000/svg"
  xmlns:xlink="http://www.w3.org/1999/xlink" version="1.1" width="75.3618mm" height="19.6088mm"
  viewBox="0.0000 0.0000 75.3618 19.6088">
  <title>SVG Image created as switch-board-Edge_Cuts.svg date 2024/05/04 17:05:48 </title>
  <desc>Image generated by PCBNEW </desc>
  <g style="fill:#000000; fill-opacity:1.0000;stroke:#000000; stroke-opacity:1.0000;
stroke-linecap:round; stroke-linejoin:round;" transform="translate(0 0) scale(1 1)">
  </g>
  <g style="fill:#000000; fill-opacity:0.0; 
stroke:#000000; stroke-width:0.0000; stroke-opacity:1; 
stroke-linecap:round; stroke-linejoin:round;">
  </g>
  <g style="fill:#000000; fill-opacity:0.0; 
stroke:#000000; stroke-width:0.1200; stroke-opacity:1; 
stroke-linecap:round; stroke-linejoin:round;">
    <path d="M70.2412 19.5544 A2.0906 2.0906 0.0 0 0 72.3318 17.4638" />
    <path d="M5.1226 2.0750 A2.0906 2.0906 0.0 0 0 3.0320 4.1656" />
    <path d="M70.2412 19.5544
L5.1234 19.5527
" />
    <path d="M3.0304 4.1656
L3.0336 7.8389
" />
    <path d="M3.0328 17.4621 A2.0906 2.0906 0.0 0 0 5.1234 19.5527" />
    <path d="M72.3310 13.7883
L72.3318 17.4638
" />
    <circle cx="3.0336" cy="10.8130" r="1.5500" />
    <path d="M72.3310 13.7883 A2.9736 2.9736 0.0 0 0 72.3310 7.8411" />
    <path d="M72.3302 4.1656
L72.3310 7.8411
" />
    <path d="M57.2056 2.0750
L57.2396 2.0750
" />
    <path d="M70.2396 2.0750
L5.1226 2.0750
" />
    <circle cx="72.3310" cy="10.8147" r="1.5500" />
    <path d="M3.0336 7.8394 A2.9736 2.9736 0.0 0 0 3.0336 13.7866" />
    <path d="M3.0336 13.7866
L3.0344 17.4621
" />
    <path d="M72.3302 4.1656 A2.0906 2.0906 0.0 0 0 70.2396 2.0750" />
    <g>
    </g>
    <g>
    </g>
    <g>
    </g>
    <g>
    </g>
    <g>
    </g>
    <g>
    </g>
    <g>
    </g>
    <g>
    </g>
    <g>
    </g>
    <g>
    </g>
    <g>
    </g>
    <g>
    </g>
  </g>
</svg>