%TF.GenerationSoftware,KiCad,Pcbnew,7.0.1-0*%
%TF.CreationDate,2024-04-25T19:19:39-04:00*%
%TF.ProjectId,mixer,6d697865-722e-46b6-9963-61645f706362,rev?*%
%TF.SameCoordinates,Original*%
%TF.FileFunction,Soldermask,Bot*%
%TF.FilePolarity,Negative*%
%FSLAX46Y46*%
G04 Gerber Fmt 4.6, Leading zero omitted, Abs format (unit mm)*
G04 Created by KiCad (PCBNEW 7.0.1-0) date 2024-04-25 19:19:39*
%MOMM*%
%LPD*%
G01*
G04 APERTURE LIST*
G04 Aperture macros list*
%AMRoundRect*
0 Rectangle with rounded corners*
0 $1 Rounding radius*
0 $2 $3 $4 $5 $6 $7 $8 $9 X,Y pos of 4 corners*
0 Add a 4 corners polygon primitive as box body*
4,1,4,$2,$3,$4,$5,$6,$7,$8,$9,$2,$3,0*
0 Add four circle primitives for the rounded corners*
1,1,$1+$1,$2,$3*
1,1,$1+$1,$4,$5*
1,1,$1+$1,$6,$7*
1,1,$1+$1,$8,$9*
0 Add four rect primitives between the rounded corners*
20,1,$1+$1,$2,$3,$4,$5,0*
20,1,$1+$1,$4,$5,$6,$7,0*
20,1,$1+$1,$6,$7,$8,$9,0*
20,1,$1+$1,$8,$9,$2,$3,0*%
G04 Aperture macros list end*
%ADD10O,1.200000X2.200000*%
%ADD11O,2.200000X1.200000*%
%ADD12R,1.800000X1.800000*%
%ADD13C,1.800000*%
%ADD14RoundRect,0.750000X-0.750000X1.250000X-0.750000X-1.250000X0.750000X-1.250000X0.750000X1.250000X0*%
G04 APERTURE END LIST*
D10*
%TO.C,U1*%
X118366000Y-99060000D03*
X115866000Y-99060000D03*
D11*
X113366000Y-94060000D03*
D10*
X108366000Y-99060000D03*
X110866000Y-99060000D03*
%TD*%
D12*
%TO.C,U2*%
X115866000Y-104409000D03*
D13*
X113366000Y-104409000D03*
X110866000Y-104409000D03*
D14*
X117766000Y-111409000D03*
X108966000Y-111409000D03*
%TD*%
D12*
%TO.C,U8*%
X160857750Y-104409000D03*
D13*
X158357750Y-104409000D03*
X155857750Y-104409000D03*
D14*
X162757750Y-111409000D03*
X153957750Y-111409000D03*
%TD*%
D10*
%TO.C,U9*%
X178355000Y-99060000D03*
X175855000Y-99060000D03*
D11*
X173355000Y-94060000D03*
D10*
X168355000Y-99060000D03*
X170855000Y-99060000D03*
%TD*%
%TO.C,U3*%
X133363250Y-99060000D03*
X130863250Y-99060000D03*
D11*
X128363250Y-94060000D03*
D10*
X123363250Y-99060000D03*
X125863250Y-99060000D03*
%TD*%
%TO.C,U5*%
X148360500Y-99060000D03*
X145860500Y-99060000D03*
D11*
X143360500Y-94060000D03*
D10*
X138360500Y-99060000D03*
X140860500Y-99060000D03*
%TD*%
D12*
%TO.C,U4*%
X130863249Y-104409000D03*
D13*
X128363249Y-104409000D03*
X125863249Y-104409000D03*
D14*
X132763249Y-111409000D03*
X123963249Y-111409000D03*
%TD*%
D12*
%TO.C,U6*%
X145860500Y-104409000D03*
D13*
X143360500Y-104409000D03*
X140860500Y-104409000D03*
D14*
X147760500Y-111409000D03*
X138960500Y-111409000D03*
%TD*%
D10*
%TO.C,U7*%
X163357750Y-99060000D03*
X160857750Y-99060000D03*
D11*
X158357750Y-94060000D03*
D10*
X153357750Y-99060000D03*
X155857750Y-99060000D03*
%TD*%
M02*
