%TF.GenerationSoftware,KiCad,Pcbnew,7.0.1-0*%
%TF.CreationDate,2024-04-25T19:19:39-04:00*%
%TF.ProjectId,mixer,6d697865-722e-46b6-9963-61645f706362,rev?*%
%TF.SameCoordinates,Original*%
%TF.FileFunction,Profile,NP*%
%FSLAX46Y46*%
G04 Gerber Fmt 4.6, Leading zero omitted, Abs format (unit mm)*
G04 Created by KiCad (PCBNEW 7.0.1-0) date 2024-04-25 19:19:39*
%MOMM*%
%LPD*%
G01*
G04 APERTURE LIST*
%TA.AperFunction,Profile*%
%ADD10C,0.100000*%
%TD*%
%TA.AperFunction,Profile*%
%ADD11C,0.120000*%
%TD*%
G04 APERTURE END LIST*
D10*
X104394000Y-107330000D02*
X104394000Y-117744000D01*
X104394000Y-87518000D02*
X182499000Y-87518000D01*
X104394000Y-97932000D02*
G75*
G03*
X104394000Y-107330000I0J-4699000D01*
G01*
X104394000Y-117744000D02*
X182499000Y-117744000D01*
X184023000Y-102631000D02*
G75*
G03*
X184023000Y-102631000I-1524000J0D01*
G01*
X182499000Y-87518000D02*
X182499000Y-97932000D01*
X182499000Y-107330000D02*
G75*
G03*
X182499000Y-97932000I0J4699000D01*
G01*
X104394000Y-97932000D02*
X104394000Y-87518000D01*
X105918000Y-102631000D02*
G75*
G03*
X105918000Y-102631000I-1524000J0D01*
G01*
X182499000Y-107330000D02*
X182499000Y-117744000D01*
D11*
%TO.C,U1*%
X115566000Y-90560000D02*
X115566000Y-89560000D01*
X115566000Y-89560000D02*
X119866000Y-89560000D01*
X111566000Y-90960000D02*
X115166000Y-90960000D01*
X111166000Y-90560000D02*
X111166000Y-89560000D01*
X111166000Y-89560000D02*
X106866000Y-89560000D01*
X115166000Y-90960000D02*
G75*
G03*
X115566000Y-90560000I-2J400002D01*
G01*
X111166000Y-90560000D02*
G75*
G03*
X111566000Y-90960000I400000J0D01*
G01*
%TO.C,U9*%
X175555000Y-90560000D02*
X175555000Y-89560000D01*
X175555000Y-89560000D02*
X179855000Y-89560000D01*
X171555000Y-90960000D02*
X175155000Y-90960000D01*
X171155000Y-90560000D02*
X171155000Y-89560000D01*
X171155000Y-89560000D02*
X166855000Y-89560000D01*
X175155000Y-90960000D02*
G75*
G03*
X175555000Y-90560000I-2J400002D01*
G01*
X171155000Y-90560000D02*
G75*
G03*
X171555000Y-90960000I400000J0D01*
G01*
%TO.C,U3*%
X130563250Y-90560000D02*
X130563250Y-89560000D01*
X130563250Y-89560000D02*
X134863250Y-89560000D01*
X126563250Y-90960000D02*
X130163250Y-90960000D01*
X126163250Y-90560000D02*
X126163250Y-89560000D01*
X126163250Y-89560000D02*
X121863250Y-89560000D01*
X130163250Y-90960000D02*
G75*
G03*
X130563250Y-90560000I-2J400002D01*
G01*
X126163250Y-90560000D02*
G75*
G03*
X126563250Y-90960000I400000J0D01*
G01*
%TO.C,U5*%
X145560500Y-90560000D02*
X145560500Y-89560000D01*
X145560500Y-89560000D02*
X149860500Y-89560000D01*
X141560500Y-90960000D02*
X145160500Y-90960000D01*
X141160500Y-90560000D02*
X141160500Y-89560000D01*
X141160500Y-89560000D02*
X136860500Y-89560000D01*
X145160500Y-90960000D02*
G75*
G03*
X145560500Y-90560000I-2J400002D01*
G01*
X141160500Y-90560000D02*
G75*
G03*
X141560500Y-90960000I400000J0D01*
G01*
%TO.C,U7*%
X160557750Y-90560000D02*
X160557750Y-89560000D01*
X160557750Y-89560000D02*
X164857750Y-89560000D01*
X156557750Y-90960000D02*
X160157750Y-90960000D01*
X156157750Y-90560000D02*
X156157750Y-89560000D01*
X156157750Y-89560000D02*
X151857750Y-89560000D01*
X160157750Y-90960000D02*
G75*
G03*
X160557750Y-90560000I-2J400002D01*
G01*
X156157750Y-90560000D02*
G75*
G03*
X156557750Y-90960000I400000J0D01*
G01*
%TD*%
M02*
