%TF.GenerationSoftware,KiCad,Pcbnew,7.0.1-0*%
%TF.CreationDate,2024-04-25T19:19:38-04:00*%
%TF.ProjectId,mixer,6d697865-722e-46b6-9963-61645f706362,rev?*%
%TF.SameCoordinates,Original*%
%TF.FileFunction,Copper,L1,Top*%
%TF.FilePolarity,Positive*%
%FSLAX46Y46*%
G04 Gerber Fmt 4.6, Leading zero omitted, Abs format (unit mm)*
G04 Created by KiCad (PCBNEW 7.0.1-0) date 2024-04-25 19:19:38*
%MOMM*%
%LPD*%
G01*
G04 APERTURE LIST*
G04 Aperture macros list*
%AMRoundRect*
0 Rectangle with rounded corners*
0 $1 Rounding radius*
0 $2 $3 $4 $5 $6 $7 $8 $9 X,Y pos of 4 corners*
0 Add a 4 corners polygon primitive as box body*
4,1,4,$2,$3,$4,$5,$6,$7,$8,$9,$2,$3,0*
0 Add four circle primitives for the rounded corners*
1,1,$1+$1,$2,$3*
1,1,$1+$1,$4,$5*
1,1,$1+$1,$6,$7*
1,1,$1+$1,$8,$9*
0 Add four rect primitives between the rounded corners*
20,1,$1+$1,$2,$3,$4,$5,0*
20,1,$1+$1,$4,$5,$6,$7,0*
20,1,$1+$1,$6,$7,$8,$9,0*
20,1,$1+$1,$8,$9,$2,$3,0*%
G04 Aperture macros list end*
%TA.AperFunction,ComponentPad*%
%ADD10O,1.200000X2.200000*%
%TD*%
%TA.AperFunction,ComponentPad*%
%ADD11O,2.200000X1.200000*%
%TD*%
%TA.AperFunction,ComponentPad*%
%ADD12R,1.800000X1.800000*%
%TD*%
%TA.AperFunction,ComponentPad*%
%ADD13C,1.800000*%
%TD*%
%TA.AperFunction,ComponentPad*%
%ADD14RoundRect,0.750000X-0.750000X1.250000X-0.750000X-1.250000X0.750000X-1.250000X0.750000X1.250000X0*%
%TD*%
%TA.AperFunction,Conductor*%
%ADD15C,0.250000*%
%TD*%
G04 APERTURE END LIST*
D10*
%TO.P,U1,R*%
%TO.N,in_1.in-r*%
X118366000Y-99060000D03*
%TO.P,U1,RN*%
%TO.N,N/C*%
X115866000Y-99060000D03*
D11*
%TO.P,U1,S*%
%TO.N,ground*%
X113366000Y-94060000D03*
D10*
%TO.P,U1,T*%
%TO.N,in_1.in-t*%
X108366000Y-99060000D03*
%TO.P,U1,TN*%
%TO.N,N/C*%
X110866000Y-99060000D03*
%TD*%
D12*
%TO.P,U2,1*%
%TO.N,output*%
X115866000Y-104409000D03*
D13*
%TO.P,U2,2*%
%TO.N,in_1.in-t*%
X113366000Y-104409000D03*
%TO.P,U2,3*%
%TO.N,ground*%
X110866000Y-104409000D03*
D14*
%TO.P,U2,MP*%
%TO.N,N/C*%
X117766000Y-111409000D03*
X108966000Y-111409000D03*
%TD*%
D12*
%TO.P,U8,1*%
%TO.N,output*%
X160857750Y-104409000D03*
D13*
%TO.P,U8,2*%
%TO.N,in_4.in-t*%
X158357750Y-104409000D03*
%TO.P,U8,3*%
%TO.N,ground*%
X155857750Y-104409000D03*
D14*
%TO.P,U8,MP*%
%TO.N,N/C*%
X162757750Y-111409000D03*
X153957750Y-111409000D03*
%TD*%
D10*
%TO.P,U9,R*%
%TO.N,out-r*%
X178355000Y-99060000D03*
%TO.P,U9,RN*%
%TO.N,N/C*%
X175855000Y-99060000D03*
D11*
%TO.P,U9,S*%
%TO.N,ground*%
X173355000Y-94060000D03*
D10*
%TO.P,U9,T*%
%TO.N,output*%
X168355000Y-99060000D03*
%TO.P,U9,TN*%
%TO.N,N/C*%
X170855000Y-99060000D03*
%TD*%
%TO.P,U3,R*%
%TO.N,in_2.in-r*%
X133363250Y-99060000D03*
%TO.P,U3,RN*%
%TO.N,N/C*%
X130863250Y-99060000D03*
D11*
%TO.P,U3,S*%
%TO.N,ground*%
X128363250Y-94060000D03*
D10*
%TO.P,U3,T*%
%TO.N,in_2.in-t*%
X123363250Y-99060000D03*
%TO.P,U3,TN*%
%TO.N,N/C*%
X125863250Y-99060000D03*
%TD*%
%TO.P,U5,R*%
%TO.N,in_3.in-r*%
X148360500Y-99060000D03*
%TO.P,U5,RN*%
%TO.N,N/C*%
X145860500Y-99060000D03*
D11*
%TO.P,U5,S*%
%TO.N,ground*%
X143360500Y-94060000D03*
D10*
%TO.P,U5,T*%
%TO.N,in_3.in-t*%
X138360500Y-99060000D03*
%TO.P,U5,TN*%
%TO.N,N/C*%
X140860500Y-99060000D03*
%TD*%
D12*
%TO.P,U4,1*%
%TO.N,output*%
X130863249Y-104409000D03*
D13*
%TO.P,U4,2*%
%TO.N,in_2.in-t*%
X128363249Y-104409000D03*
%TO.P,U4,3*%
%TO.N,ground*%
X125863249Y-104409000D03*
D14*
%TO.P,U4,MP*%
%TO.N,N/C*%
X132763249Y-111409000D03*
X123963249Y-111409000D03*
%TD*%
D12*
%TO.P,U6,1*%
%TO.N,output*%
X145860500Y-104409000D03*
D13*
%TO.P,U6,2*%
%TO.N,in_3.in-t*%
X143360500Y-104409000D03*
%TO.P,U6,3*%
%TO.N,ground*%
X140860500Y-104409000D03*
D14*
%TO.P,U6,MP*%
%TO.N,N/C*%
X147760500Y-111409000D03*
X138960500Y-111409000D03*
%TD*%
D10*
%TO.P,U7,R*%
%TO.N,in_4.in-r*%
X163357750Y-99060000D03*
%TO.P,U7,RN*%
%TO.N,N/C*%
X160857750Y-99060000D03*
D11*
%TO.P,U7,S*%
%TO.N,ground*%
X158357750Y-94060000D03*
D10*
%TO.P,U7,T*%
%TO.N,in_4.in-t*%
X153357750Y-99060000D03*
%TO.P,U7,TN*%
%TO.N,N/C*%
X155857750Y-99060000D03*
%TD*%
D15*
%TO.N,output*%
X145860500Y-104409000D02*
X144635500Y-105634000D01*
X144635500Y-105634000D02*
X132088249Y-105634000D01*
X117091000Y-105634000D02*
X115866000Y-104409000D01*
X147085500Y-105634000D02*
X145860500Y-104409000D01*
X132088249Y-105634000D02*
X130863249Y-104409000D01*
X163006000Y-104409000D02*
X168355000Y-99060000D01*
X129638249Y-105634000D02*
X117091000Y-105634000D01*
X160857750Y-104409000D02*
X163006000Y-104409000D01*
X159632750Y-105634000D02*
X147085500Y-105634000D01*
X160857750Y-104409000D02*
X159632750Y-105634000D01*
X130863249Y-104409000D02*
X129638249Y-105634000D01*
%TO.N,in_1.in-t*%
X108366000Y-99409000D02*
X108366000Y-99060000D01*
X113366000Y-104409000D02*
X108366000Y-99409000D01*
%TO.N,in_2.in-t*%
X123363250Y-99409001D02*
X123363250Y-99060000D01*
X128363249Y-104409000D02*
X123363250Y-99409001D01*
%TO.N,in_3.in-t*%
X138360500Y-99409000D02*
X138360500Y-99060000D01*
X143360500Y-104409000D02*
X138360500Y-99409000D01*
%TO.N,in_4.in-t*%
X158357750Y-104409000D02*
X153357750Y-99409000D01*
X153357750Y-99409000D02*
X153357750Y-99060000D01*
%TD*%
M02*
